Bahianitaa.ufo
<glyph name="numbersign" format="1">
  <advance width="408"/>
  <unicode hex="0023"/>
  <outline>
    <contour>
      <point x="117" y="78" type="line"/>
      <point x="149" y="257" type="line"/>
      <point x="224" y="259" type="line"/>
      <point x="192" y="92" type="line"/>
      <point x="250" y="78" type="line"/>
      <point x="282" y="261" type="line"/>
      <point x="383" y="263" type="line"/>
      <point x="383" y="312" type="line"/>
      <point x="291" y="312" type="line"/>
      <point x="305" y="390" type="line"/>
      <point x="412" y="390" type="line"/>
      <point x="412" y="439" type="line"/>
      <point x="314" y="441" type="line"/>
      <point x="347" y="622" type="line"/>
      <point x="296" y="632" type="line"/>
      <point x="259" y="442" type="line"/>
      <point x="182" y="444" type="line"/>
      <point x="214" y="622" type="line"/>
      <point x="163" y="632" type="line"/>
      <point x="127" y="445" type="line"/>
      <point x="24" y="448" type="line"/>
      <point x="27" y="390" type="line"/>
      <point x="116" y="390" type="line"/>
      <point x="101" y="312" type="line"/>
      <point x="-2" y="312" type="line"/>
      <point x="-5" y="254" type="line"/>
      <point x="90" y="256" type="line"/>
      <point x="59" y="92" type="line"/>
    </contour>
    <contour>
      <point x="158" y="312" type="line"/>
      <point x="172" y="390" type="line"/>
      <point x="249" y="390" type="line"/>
      <point x="234" y="312" type="line"/>
    </contour>
  </outline>
</glyph>
<glyph name="comma" format="1">
  <advance width="145"/>
  <unicode hex="002C"/>
  <outline>
    <contour>
      <point x="63" y="-110" type="line"/>
      <point x="111" y="0" type="line"/>
      <point x="115" y="96" type="line"/>
      <point x="29" y="92" type="line"/>
      <point x="61" y="0" type="line"/>
      <point x="20" y="-95" type="line"/>
    </contour>
  </outline>
</glyph>
<glyph name="period" format="1">
  <advance width="206"/>
  <unicode hex="002E"/>
  <outline>
    <contour>
      <point x="60" y="0" type="line"/>
      <point x="152" y="0" type="line"/>
      <point x="156" y="96" type="line"/>
      <point x="60" y="92" type="line"/>
    </contour>
  </outline>
</glyph>
<glyph name="slash" format="1">
  <advance width="246"/>
  <unicode hex="002F"/>
  <outline>
    <contour>
      <point x="88" y="-14" type="line"/>
      <point x="216" y="710" type="line"/>
      <point x="165" y="720" type="line"/>
      <point x="30" y="0" type="line"/>
    </contour>
  </outline>
</glyph>
<glyph name="semicolon" format="1">
  <advance width="206"/>
  <unicode hex="003B"/>
  <outline>
    <contour>
      <point x="103" y="-110" type="line"/>
      <point x="151" y="0" type="line"/>
      <point x="155" y="96" type="line"/>
      <point x="69" y="92" type="line"/>
      <point x="101" y="0" type="line"/>
      <point x="60" y="-95" type="line"/>
    </contour>
    <contour>
      <point x="64" y="394" type="line"/>
      <point x="156" y="394" type="line"/>
      <point x="156" y="486" type="line"/>
      <point x="60" y="490" type="line"/>
    </contour>
  </outline>
</glyph>
<glyph name="less" format="1">
  <advance width="339"/>
  <unicode hex="003C"/>
  <outline>
    <contour>
      <point x="262" y="158" type="line"/>
      <point x="307" y="221" type="line"/>
      <point x="103" y="330" type="line"/>
      <point x="103" y="334" type="line"/>
      <point x="309" y="458" type="line"/>
      <point x="273" y="516" type="line"/>
      <point x="35" y="364" type="line"/>
      <point x="31" y="298" type="line"/>
    </contour>
  </outline>
</glyph>
<glyph name="greater" format="1">
  <advance width="339"/>
  <unicode hex="003E"/>
  <outline>
    <contour>
      <point x="87" y="158" type="line"/>
      <point x="308" y="298" type="line"/>
      <point x="304" y="364" type="line"/>
      <point x="66" y="516" type="line"/>
      <point x="30" y="458" type="line"/>
      <point x="236" y="334" type="line"/>
      <point x="236" y="330" type="line"/>
      <point x="32" y="241" type="line"/>
    </contour>
  </outline>
</glyph>
<glyph name="B" format="1">
  <advance width="287"/>
  <unicode hex="0042"/>
  <outline>
    <contour>
      <point x="40" y="20" type="line"/>
      <point x="176" y="20" type="line"/>
      <point x="188" y="20"/>
      <point x="251" y="21"/>
      <point x="251" y="50" type="curve"/>
      <point x="251" y="352" type="line"/>
      <point x="251" y="365"/>
      <point x="223" y="370"/>
      <point x="200" y="374" type="curve"/>
      <point x="208" y="379"/>
      <point x="209" y="382"/>
      <point x="211" y="397" type="curve"/>
      <point x="240" y="652" type="line"/>
      <point x="241" y="662" type="line"/>
      <point x="241" y="705"/>
      <point x="178" y="710"/>
      <point x="153" y="710" type="curve"/>
      <point x="40" y="710" type="line"/>
    </contour>
    <contour>
      <point x="130" y="76" type="line"/>
      <point x="125" y="76"/>
      <point x="119" y="78"/>
      <point x="119" y="79" type="curve"/>
      <point x="119" y="331" type="line"/>
      <point x="119" y="332"/>
      <point x="125" y="337"/>
      <point x="130" y="337" type="curve"/>
      <point x="172" y="337" type="line"/>
      <point x="176" y="337"/>
      <point x="176" y="335"/>
      <point x="176" y="331" type="curve"/>
      <point x="176" y="106" type="line"/>
      <point x="176" y="85"/>
      <point x="166" y="76"/>
      <point x="145" y="76" type="curve"/>
    </contour>
    <contour>
      <point x="109" y="407" type="line"/>
      <point x="101" y="407"/>
      <point x="97" y="410"/>
      <point x="97" y="415" type="curve"/>
      <point x="97" y="647" type="line"/>
      <point x="97" y="650"/>
      <point x="101" y="651"/>
      <point x="109" y="651" type="curve"/>
      <point x="152" y="651" type="line"/>
      <point x="161" y="651"/>
      <point x="166" y="650"/>
      <point x="166" y="647" type="curve"/>
      <point x="156" y="431" type="line"/>
      <point x="156" y="426"/>
      <point x="153" y="424"/>
      <point x="147" y="422" type="curve"/>
    </contour>
  </outline>
</glyph>
<glyph name="D" format="1">
  <advance width="295"/>
  <unicode hex="0044"/>
  <outline>
    <contour>
      <point x="40" y="0" type="line"/>
      <point x="173" y="0" type="line"/>
      <point x="234" y="57" type="line"/>
      <point x="264" y="600" type="line"/>
      <point x="264" y="664"/>
      <point x="219" y="710"/>
      <point x="155" y="710" type="curve"/>
      <point x="40" y="710" type="line"/>
    </contour>
    <contour>
      <point x="121" y="66" type="line"/>
      <point x="112" y="72" type="line"/>
      <point x="112" y="638" type="line" smooth="yes"/>
      <point x="112" y="641"/>
      <point x="118" y="644"/>
      <point x="121" y="644" type="curve" smooth="yes"/>
      <point x="166" y="644" type="line" smooth="yes"/>
      <point x="174" y="644"/>
      <point x="178" y="642"/>
      <point x="178" y="638" type="curve"/>
      <point x="167" y="84" type="line" smooth="yes"/>
      <point x="167" y="79"/>
      <point x="164" y="75"/>
      <point x="158" y="71" type="curve"/>
    </contour>
    <contour>
      <point x="135" y="0" type="move" name="bottom"/>
    </contour>
    <contour>
      <point x="145" y="710" type="move" name="top"/>
    </contour>
  </outline>
</glyph>
<glyph name="E" format="1">
  <advance width="296"/>
  <unicode hex="0045"/>
  <outline>
    <contour>
      <point x="37" y="20" type="line"/>
      <point x="272" y="20" type="line"/>
      <point x="269" y="121" type="line"/>
      <point x="125" y="103" type="line"/>
      <point x="125" y="358" type="line"/>
      <point x="229" y="376" type="line"/>
      <point x="229" y="426" type="line"/>
      <point x="120" y="426" type="line"/>
      <point x="120" y="632" type="line"/>
      <point x="263" y="632" type="line"/>
      <point x="263" y="710" type="line"/>
      <point x="60" y="710" type="line"/>
    </contour>
    <contour>
      <point x="150" y="0" type="move" name="bottom"/>
    </contour>
    <contour>
      <point x="272" y="20" type="move" name="ogonek"/>
    </contour>
    <contour>
      <point x="157" y="710" type="move" name="top"/>
    </contour>
    <contour>
      <point x="20" y="710" type="move" name="topleft"/>
    </contour>
  </outline>
</glyph>
<glyph name="N" format="1">
  <advance width="333"/>
  <unicode hex="004E"/>
  <outline>
    <contour>
      <point x="24" y="0" type="line"/>
      <point x="83" y="0" type="line"/>
      <point x="83" y="651" type="line"/>
      <point x="87" y="651" type="line"/>
      <point x="189" y="0" type="line"/>
      <point x="304" y="0" type="line"/>
      <point x="314" y="710" type="line"/>
      <point x="256" y="710" type="line"/>
      <point x="234" y="58" type="line"/>
      <point x="230" y="58" type="line"/>
      <point x="140" y="710" type="line"/>
      <point x="24" y="710" type="line"/>
    </contour>
    <contour>
      <point x="172" y="0" type="move" name="bottom"/>
    </contour>
    <contour>
      <point x="179" y="710" type="move" name="top"/>
    </contour>
  </outline>
</glyph>
<glyph name="Q" format="1">
  <advance width="300"/>
  <unicode hex="0051"/>
  <outline>
    <contour>
      <point x="217" y="-131" type="line"/>
      <point x="267" y="-124" type="line"/>
      <point x="203" y="30" type="line"/>
      <point x="258" y="30" type="line"/>
      <point x="258" y="673" type="line"/>
      <point x="218" y="710" type="line"/>
      <point x="78" y="710" type="line"/>
      <point x="40" y="664" type="line"/>
      <point x="40" y="30" type="line"/>
      <point x="153" y="30" type="line"/>
      <point x="197" y="-114" type="line"/>
    </contour>
    <contour>
      <point x="110" y="100" type="line" smooth="yes"/>
      <point x="104" y="100"/>
      <point x="101" y="102"/>
      <point x="101" y="106" type="curve" smooth="yes"/>
      <point x="111" y="639" type="line" smooth="yes"/>
      <point x="111" y="645"/>
      <point x="114" y="648"/>
      <point x="120" y="648" type="curve" smooth="yes"/>
      <point x="182" y="648" type="line" smooth="yes"/>
      <point x="188" y="648"/>
      <point x="191" y="645"/>
      <point x="191" y="639" type="curve"/>
      <point x="191" y="106" type="line" smooth="yes"/>
      <point x="191" y="103"/>
      <point x="182" y="100"/>
      <point x="175" y="100" type="curve"/>
      <point x="158" y="141" type="line"/>
      <point x="122" y="132" type="line"/>
      <point x="132" y="100" type="line"/>
    </contour>
  </outline>
</glyph>
<glyph name="V" format="1">
  <advance width="277"/>
  <unicode hex="0056"/>
  <outline>
    <contour>
      <point x="121" y="-10" type="line"/>
      <point x="187" y="0" type="line"/>
      <point x="272" y="710" type="line"/>
      <point x="207" y="710" type="line"/>
      <point x="159" y="78" type="line"/>
      <point x="155" y="78" type="line"/>
      <point x="84" y="710" type="line"/>
      <point x="5" y="710" type="line"/>
    </contour>
  </outline>
</glyph>
<glyph name="n" format="1">
  <advance width="279"/>
  <unicode hex="006E"/>
  <outline>
    <contour>
      <point x="45" y="0" type="line"/>
      <point x="103" y="0" type="line"/>
      <point x="109" y="522" type="line"/>
      <point x="168" y="522" type="line"/>
      <point x="177" y="521"/>
      <point x="177" y="519"/>
      <point x="177" y="516" type="curve" smooth="yes"/>
      <point x="171" y="0" type="line"/>
      <point x="233" y="0" type="line"/>
      <point x="234" y="535" type="line" smooth="yes"/>
      <point x="234" y="562"/>
      <point x="210" y="583"/>
      <point x="173" y="583" type="curve" smooth="yes"/>
      <point x="102" y="583"/>
      <point x="70" y="578"/>
      <point x="45" y="562" type="curve"/>
    </contour>
    <contour>
      <point x="139" y="0" type="move" name="bottom"/>
    </contour>
    <contour>
      <point x="144" y="582" type="move" name="top"/>
    </contour>
  </outline>
</glyph>
<glyph name="q" format="1">
  <advance width="294"/>
  <unicode hex="0071"/>
  <outline>
    <contour>
      <point x="186" y="-129" type="line"/>
      <point x="251" y="-129" type="line"/>
      <point x="246" y="582" type="line"/>
      <point x="98" y="582" type="line" smooth="yes"/>
      <point x="58" y="582"/>
      <point x="47" y="570"/>
      <point x="47" y="546" type="curve" smooth="yes"/>
      <point x="45" y="54" type="line" smooth="yes"/>
      <point x="45" y="19"/>
      <point x="63" y="0"/>
      <point x="87" y="0" type="curve" smooth="yes"/>
      <point x="180" y="0" type="line"/>
    </contour>
    <contour>
      <point x="124" y="62" type="line" smooth="yes"/>
      <point x="115" y="62"/>
      <point x="115" y="64"/>
      <point x="115" y="68" type="curve"/>
      <point x="105" y="510" type="line"/>
      <point x="105" y="516"/>
      <point x="105" y="519"/>
      <point x="114" y="519" type="curve" smooth="yes"/>
      <point x="169" y="519" type="line" smooth="yes"/>
      <point x="174" y="519"/>
      <point x="178" y="516"/>
      <point x="178" y="510" type="curve" smooth="yes"/>
      <point x="178" y="68" type="line" smooth="yes"/>
      <point x="178" y="64"/>
      <point x="178" y="62"/>
      <point x="169" y="62" type="curve" smooth="yes"/>
    </contour>
  </outline>
</glyph>
<glyph name="x" format="1">
  <advance width="276"/>
  <unicode hex="0078"/>
  <outline>
    <contour>
      <point x="14" y="0" type="line"/>
      <point x="83" y="0" type="line"/>
      <point x="115" y="262" type="line"/>
      <point x="131" y="271" type="line"/>
      <point x="192" y="0" type="line"/>
      <point x="273" y="0" type="line"/>
      <point x="179" y="294" type="line"/>
      <point x="200" y="306" type="line"/>
      <point x="258" y="607" type="line"/>
      <point x="189" y="607" type="line"/>
      <point x="156" y="331" type="line"/>
      <point x="139" y="321" type="line"/>
      <point x="93" y="582" type="line"/>
      <point x="12" y="582" type="line"/>
      <point x="97" y="302" type="line"/>
      <point x="67" y="285" type="line"/>
    </contour>
  </outline>
</glyph>
<glyph name="exclamdown" format="1">
  <advance width="206"/>
  <unicode hex="00A1"/>
  <outline>
    <contour>
      <point x="42" y="0" type="line"/>
      <point x="146" y="0" type="line"/>
      <point x="119" y="523" type="line"/>
      <point x="78" y="523" type="line"/>
    </contour>
    <contour>
      <point x="143" y="618" type="line"/>
      <point x="146" y="710" type="line"/>
      <point x="54" y="710" type="line"/>
      <point x="50" y="623" type="line"/>
    </contour>
  </outline>
</glyph>
<glyph name="cent" format="1">
  <advance width="339"/>
  <unicode hex="00A2"/>
  <outline>
    <contour>
      <point x="208" y="-89" type="line"/>
      <point x="203" y="20" type="line"/>
      <point x="306" y="20" type="line"/>
      <point x="306" y="187" type="line"/>
      <point x="280" y="187" type="line"/>
      <point x="254" y="167" type="line"/>
      <point x="254" y="99" type="line"/>
      <point x="254" y="95"/>
      <point x="250" y="93"/>
      <point x="242" y="93" type="curve"/>
      <point x="128" y="93" type="line"/>
      <point x="124" y="93"/>
      <point x="122" y="95"/>
      <point x="122" y="99" type="curve"/>
      <point x="128" y="306" type="line"/>
      <point x="128" y="339"/>
      <point x="128" y="369"/>
      <point x="161" y="379" type="curve"/>
      <point x="242" y="390" type="line"/>
      <point x="250" y="390"/>
      <point x="254" y="387"/>
      <point x="254" y="381" type="curve"/>
      <point x="254" y="278" type="line"/>
      <point x="300" y="278" type="line"/>
      <point x="316" y="440" type="line"/>
      <point x="218" y="440" type="line"/>
      <point x="220" y="551" type="line"/>
      <point x="172" y="551" type="line"/>
      <point x="165" y="440" type="line"/>
      <point x="129" y="440" type="line"/>
      <point x="85" y="440"/>
      <point x="63" y="410"/>
      <point x="62" y="383" type="curve"/>
      <point x="52" y="62" type="line"/>
      <point x="93" y="20" type="line"/>
      <point x="154" y="20" type="line"/>
      <point x="154" y="-87" type="line"/>
    </contour>
  </outline>
</glyph>
<glyph name="logicalnot" format="1">
  <advance width="339"/>
  <unicode hex="00AC"/>
  <outline>
    <contour>
      <point x="312" y="175" type="line"/>
      <point x="328" y="317" type="line"/>
      <point x="328" y="366" type="line"/>
      <point x="13" y="366" type="line"/>
      <point x="10" y="308" type="line"/>
      <point x="278" y="315" type="line"/>
      <point x="252" y="190" type="line"/>
    </contour>
  </outline>
</glyph>
<glyph name="paragraph" format="1">
  <advance width="366"/>
  <unicode hex="00B6"/>
  <outline>
    <contour>
      <point x="184" y="-100" type="line"/>
      <point x="232" y="-100" type="line"/>
      <point x="232" y="670" type="line"/>
      <point x="259" y="666" type="line"/>
      <point x="284" y="-100" type="line"/>
      <point x="316" y="-100" type="line"/>
      <point x="316" y="669" type="line"/>
      <point x="358" y="681" type="line"/>
      <point x="358" y="710" type="line"/>
      <point x="118" y="710" type="line" smooth="yes"/>
      <point x="67" y="710"/>
      <point x="28" y="688"/>
      <point x="28" y="661" type="curve" smooth="yes"/>
      <point x="28" y="419" type="line" smooth="yes"/>
      <point x="28" y="407"/>
      <point x="38" y="346"/>
      <point x="131" y="346" type="curve" smooth="yes"/>
      <point x="184" y="346" type="line"/>
    </contour>
  </outline>
</glyph>
<glyph name="onesuperior" format="1">
  <advance width="245"/>
  <unicode hex="00B9"/>
  <outline>
    <contour>
      <point x="45" y="345" type="line"/>
      <point x="200" y="345" type="line"/>
      <point x="194" y="399" type="line"/>
      <point x="147" y="397" type="line"/>
      <point x="147" y="710" type="line"/>
      <point x="112" y="710" type="line"/>
      <point x="47" y="679" type="line"/>
      <point x="47" y="652" type="line"/>
      <point x="97" y="649" type="line"/>
      <point x="89" y="394" type="line"/>
      <point x="45" y="394" type="line"/>
    </contour>
  </outline>
</glyph>
<glyph name="Eth" format="1">
  <advance width="295"/>
  <unicode hex="00D0"/>
  <outline>
    <contour>
      <point x="-2" y="338" type="line"/>
      <point x="157" y="338" type="line"/>
      <point x="157" y="387" type="line"/>
      <point x="-5" y="396" type="line"/>
    </contour>
    <component base="D"/>
  </outline>
</glyph>
<glyph name="divide" format="1">
  <advance width="339"/>
  <unicode hex="00F7"/>
  <outline>
    <contour>
      <point x="13" y="308" type="line"/>
      <point x="328" y="308" type="line"/>
      <point x="328" y="357" type="line"/>
      <point x="10" y="366" type="line"/>
    </contour>
    <contour>
      <point x="131" y="132" type="line"/>
      <point x="223" y="132" type="line"/>
      <point x="227" y="228" type="line"/>
      <point x="131" y="224" type="line"/>
    </contour>
    <contour>
      <point x="227" y="440" type="line"/>
      <point x="223" y="536" type="line"/>
      <point x="131" y="536" type="line"/>
      <point x="131" y="444" type="line"/>
    </contour>
  </outline>
</glyph>
<glyph name="Nhookleft" format="1">
  <advance width="333"/>
  <unicode hex="019D"/>
  <outline>
    <contour>
      <point x="-44" y="-149" type="line"/>
      <point x="59" y="-108" type="line"/>
      <point x="84" y="29" type="line"/>
      <point x="83" y="651" type="line"/>
      <point x="87" y="651" type="line"/>
      <point x="189" y="0" type="line"/>
      <point x="304" y="0" type="line"/>
      <point x="314" y="710" type="line"/>
      <point x="256" y="710" type="line"/>
      <point x="234" y="58" type="line"/>
      <point x="230" y="58" type="line"/>
      <point x="140" y="710" type="line"/>
      <point x="24" y="710" type="line"/>
      <point x="25" y="-47" type="line"/>
      <point x="-59" y="-71" type="line"/>
    </contour>
  </outline>
</glyph>
<glyph name="jdotless" format="1">
  <advance width="168"/>
  <unicode hex="0237"/>
  <outline>
    <contour>
      <point x="34" y="-178" type="line"/>
      <point x="94" y="-81" type="line"/>
      <point x="114" y="17" type="line"/>
      <point x="126" y="582" type="line"/>
      <point x="47" y="582" type="line"/>
      <point x="50" y="-17" type="line"/>
      <point x="-20" y="-141" type="line"/>
    </contour>
    <contour>
      <point x="84" y="0" type="move" name="bottom"/>
    </contour>
    <contour>
      <point x="84" y="582" type="move" name="top"/>
    </contour>
  </outline>
</glyph>
<glyph name="nhookleft" format="1">
  <advance width="279"/>
  <unicode hex="0272"/>
  <outline>
    <contour>
      <point x="-26" y="-149" type="line"/>
      <point x="80" y="-108" type="line"/>
      <point x="103" y="29" type="line"/>
      <point x="109" y="522" type="line"/>
      <point x="168" y="522" type="line"/>
      <point x="177" y="521"/>
      <point x="177" y="519"/>
      <point x="177" y="516" type="curve" smooth="yes"/>
      <point x="171" y="0" type="line"/>
      <point x="233" y="0" type="line"/>
      <point x="234" y="535" type="line" smooth="yes"/>
      <point x="234" y="562"/>
      <point x="210" y="583"/>
      <point x="173" y="583" type="curve" smooth="yes"/>
      <point x="102" y="583"/>
      <point x="70" y="578"/>
      <point x="45" y="562" type="curve"/>
      <point x="44" y="-49" type="line"/>
      <point x="-41" y="-73" type="line"/>
    </contour>
  </outline>
</glyph>
<glyph name="primemod" format="1">
  <advance width="97"/>
  <unicode hex="02B9"/>
  <outline>
    <contour>
      <point x="49" y="478" type="line"/>
      <point x="90" y="616" type="line"/>
      <point x="97" y="714" type="line"/>
      <point x="18" y="718" type="line"/>
      <point x="0" y="486" type="line"/>
    </contour>
  </outline>
</glyph>
<glyph name="apostrophemod" format="1">
  <advance width="150"/>
  <unicode hex="02BC"/>
  <outline>
    <contour>
      <point x="90" y="538" type="line"/>
      <point x="123" y="628" type="line"/>
      <point x="120" y="710" type="line"/>
      <point x="39" y="710" type="line"/>
      <point x="39" y="628" type="line"/>
      <point x="81" y="628" type="line"/>
      <point x="35" y="554" type="line"/>
    </contour>
    <contour>
      <point x="75" y="710" type="move" name="_top"/>
    </contour>
    <contour>
      <point x="75" y="900" type="move" name="top"/>
    </contour>
  </outline>
</glyph>
<glyph name="circumflex" format="1">
  <advance width="228"/>
  <unicode hex="02C6"/>
  <outline>
    <contour>
      <point x="49" y="640" type="line"/>
      <point x="114" y="702" type="line"/>
      <point x="179" y="640" type="line"/>
      <point x="208" y="659" type="line"/>
      <point x="134" y="769" type="line"/>
      <point x="94" y="772" type="line"/>
      <point x="20" y="659" type="line"/>
    </contour>
  </outline>
</glyph>
<glyph name="ogonek" format="1">
  <advance width="301"/>
  <unicode hex="02DB"/>
  <outline>
    <contour>
      <point x="135" y="-204" type="line"/>
      <point x="214" y="-146" type="line"/>
      <point x="214" y="-117" type="line"/>
      <point x="145" y="-139" type="line"/>
      <point x="106" y="-100" type="line"/>
      <point x="198" y="0" type="line"/>
      <point x="198" y="20" type="line"/>
      <point x="173" y="26" type="line"/>
      <point x="55" y="-65" type="line"/>
      <point x="40" y="-135" type="line"/>
    </contour>
  </outline>
</glyph>
<glyph name="circumflexcomb" format="1">
  <advance width="188"/>
  <unicode hex="0302"/>
  <outline>
    <contour>
      <point x="29" y="640" type="line"/>
      <point x="94" y="702" type="line"/>
      <point x="159" y="640" type="line"/>
      <point x="188" y="659" type="line"/>
      <point x="114" y="769" type="line"/>
      <point x="74" y="772" type="line"/>
      <point x="0" y="659" type="line"/>
    </contour>
    <contour>
      <point x="94" y="582" type="move" name="_top"/>
    </contour>
    <contour>
      <point x="94" y="732" type="move" name="top"/>
    </contour>
  </outline>
</glyph>
<glyph name="macroncomb" format="1">
  <advance width="208"/>
  <unicode hex="0304"/>
  <outline>
    <component base="macron" xOffset="-20"/>
    <contour>
      <point x="105" y="582" type="move" name="_top"/>
    </contour>
    <contour>
      <point x="105" y="732" type="move" name="top"/>
    </contour>
  </outline>
</glyph>
<glyph name="brevecomb" format="1">
  <advance width="213"/>
  <unicode hex="0306"/>
  <outline>
    <contour>
      <point x="49" y="651" type="line"/>
      <point x="174" y="651" type="line"/>
      <point x="213" y="690" type="line"/>
      <point x="213" y="766" type="line"/>
      <point x="167" y="762" type="line"/>
      <point x="170" y="696" type="line"/>
      <point x="60" y="701" type="line"/>
      <point x="48" y="712" type="line"/>
      <point x="53" y="760" type="line"/>
      <point x="0" y="760" type="line"/>
      <point x="4" y="679" type="line"/>
    </contour>
    <contour>
      <point x="109" y="582" type="move" name="_top"/>
    </contour>
    <contour>
      <point x="109" y="722" type="move" name="top"/>
    </contour>
  </outline>
</glyph>
<glyph name="dotaccentcomb" format="1">
  <advance width="93"/>
  <unicode hex="0307"/>
  <outline>
    <component base="dotaccent" xOffset="-30"/>
    <contour>
      <point x="48" y="582" type="move" name="_top"/>
    </contour>
    <contour>
      <point x="48" y="702" type="move" name="top"/>
    </contour>
  </outline>
</glyph>
<glyph name="ringcomb" format="1">
  <advance width="139"/>
  <unicode hex="030A"/>
  <outline>
    <contour>
      <point x="0" y="639" type="line"/>
      <point x="114" y="639" type="line"/>
      <point x="139" y="665" type="line"/>
      <point x="139" y="774" type="line"/>
      <point x="0" y="774" type="line"/>
    </contour>
    <contour>
      <point x="49" y="674" type="line" smooth="yes"/>
      <point x="45" y="674"/>
      <point x="43" y="675"/>
      <point x="43" y="678" type="curve" smooth="yes"/>
      <point x="43" y="744" type="line" smooth="yes"/>
      <point x="43" y="746"/>
      <point x="46" y="747"/>
      <point x="51" y="747" type="curve"/>
      <point x="91" y="742" type="line"/>
      <point x="95" y="740"/>
      <point x="97" y="738"/>
      <point x="97" y="736" type="curve" smooth="yes"/>
      <point x="97" y="680" type="line" smooth="yes"/>
      <point x="97" y="676"/>
      <point x="95" y="674"/>
      <point x="90" y="674" type="curve"/>
    </contour>
    <contour>
      <point x="70" y="582" type="move" name="_top"/>
    </contour>
    <contour>
      <point x="70" y="754" type="move" name="top"/>
    </contour>
  </outline>
</glyph>
<glyph name="caroncomb" format="1">
  <advance width="188"/>
  <unicode hex="030C"/>
  <outline>
    <contour>
      <point x="114" y="640" type="line"/>
      <point x="188" y="753" type="line"/>
      <point x="159" y="772" type="line"/>
      <point x="94" y="710" type="line"/>
      <point x="29" y="772" type="line"/>
      <point x="0" y="753" type="line"/>
      <point x="74" y="643" type="line"/>
    </contour>
    <contour>
      <point x="94" y="582" type="move" name="_top"/>
    </contour>
    <contour>
      <point x="94" y="762" type="move" name="top"/>
    </contour>
  </outline>
</glyph>
<glyph name="dblgravecomb" format="1">
  <advance width="250"/>
  <unicode hex="030F"/>
  <outline>
    <component base="grave" xOffset="-20"/>
    <component base="grave" xOffset="100"/>
    <contour>
      <point x="146" y="582" type="move" name="_top"/>
    </contour>
    <contour>
      <point x="140" y="762" type="move" name="top"/>
    </contour>
  </outline>
</glyph>
<glyph name="breveinvertedcomb" format="1">
  <advance width="183"/>
  <unicode hex="0311"/>
  <outline>
    <contour>
      <point x="183" y="641" type="line"/>
      <point x="183" y="717" type="line"/>
      <point x="144" y="756" type="line"/>
      <point x="49" y="756" type="line"/>
      <point x="4" y="728" type="line"/>
      <point x="0" y="647" type="line"/>
      <point x="53" y="647" type="line"/>
      <point x="48" y="695" type="line"/>
      <point x="60" y="706" type="line"/>
      <point x="140" y="711" type="line"/>
      <point x="137" y="645" type="line"/>
    </contour>
    <contour>
      <point x="94" y="582" type="move" name="_top"/>
    </contour>
    <contour>
      <point x="94" y="756" type="move" name="top"/>
    </contour>
  </outline>
</glyph>
<glyph name="commaturnedabovecomb" format="1">
  <advance width="80"/>
  <unicode hex="0312"/>
  <outline>
    <contour>
      <point x="0" y="659" type="line"/>
      <point x="80" y="660" type="line"/>
      <point x="75" y="726" type="line"/>
      <point x="56" y="742" type="line"/>
      <point x="70" y="816" type="line"/>
      <point x="30" y="826" type="line"/>
      <point x="0" y="741" type="line"/>
    </contour>
    <contour>
      <point x="40" y="582" type="move" name="_top"/>
    </contour>
    <contour>
      <point x="40" y="806" type="move" name="top"/>
    </contour>
  </outline>
</glyph>
<glyph name="dieresisbelowcomb" format="1">
  <advance width="219"/>
  <unicode hex="0324"/>
  <outline>
    <contour>
      <point x="0" y="-145" type="line"/>
      <point x="79" y="-145" type="line"/>
      <point x="83" y="-62" type="line"/>
      <point x="0" y="-65" type="line"/>
    </contour>
    <contour>
      <point x="143" y="-145" type="line"/>
      <point x="219" y="-142" type="line"/>
      <point x="219" y="-62" type="line"/>
      <point x="140" y="-62" type="line"/>
    </contour>
    <contour>
      <point x="110" y="0" type="move" name="_bottom"/>
    </contour>
    <contour>
      <point x="110" y="-150" type="move" name="bottom"/>
    </contour>
  </outline>
</glyph>
<glyph name="brevebelowcomb" format="1">
  <advance width="213"/>
  <unicode hex="032E"/>
  <outline>
    <contour>
      <point x="49" y="-166" type="line"/>
      <point x="174" y="-166" type="line"/>
      <point x="213" y="-127" type="line"/>
      <point x="213" y="-51" type="line"/>
      <point x="167" y="-55" type="line"/>
      <point x="170" y="-121" type="line"/>
      <point x="60" y="-116" type="line"/>
      <point x="48" y="-105" type="line"/>
      <point x="53" y="-57" type="line"/>
      <point x="0" y="-57" type="line"/>
      <point x="4" y="-138" type="line"/>
    </contour>
    <contour>
      <point x="107" y="0" type="move" name="_bottom"/>
    </contour>
    <contour>
      <point x="107" y="-150" type="move" name="bottom"/>
    </contour>
  </outline>
</glyph>
<glyph name="Delta" format="1">
  <advance width="330"/>
  <unicode hex="0394"/>
  <outline>
    <contour>
      <point x="315" y="0" type="line"/>
      <point x="214" y="710" type="line"/>
      <point x="144" y="700" type="line"/>
      <point x="15" y="10" type="line"/>
    </contour>
    <contour>
      <point x="92" y="64" type="line"/>
      <point x="165" y="664" type="line"/>
      <point x="178" y="662" type="line"/>
      <point x="238" y="74" type="line"/>
    </contour>
  </outline>
</glyph>
<glyph name="endash" format="1">
  <advance width="338"/>
  <unicode hex="2013"/>
  <outline>
    <contour>
      <point x="47" y="308" type="line"/>
      <point x="288" y="319" type="line"/>
      <point x="291" y="376" type="line"/>
      <point x="47" y="381" type="line"/>
    </contour>
  </outline>
</glyph>
<glyph name="quoteright" format="1">
  <advance width="198"/>
  <unicode hex="2019"/>
  <outline>
    <contour>
      <point x="92" y="478" type="line"/>
      <point x="147" y="604" type="line"/>
      <point x="152" y="714" type="line"/>
      <point x="53" y="709" type="line"/>
      <point x="90" y="604" type="line"/>
      <point x="43" y="495" type="line"/>
    </contour>
  </outline>
</glyph>
<glyph name="dagger" format="1">
  <advance width="317"/>
  <unicode hex="2020"/>
  <outline>
    <contour>
      <point x="184" y="-129" type="line"/>
      <point x="193" y="433" type="line"/>
      <point x="318" y="433" type="line"/>
      <point x="318" y="482" type="line"/>
      <point x="194" y="485" type="line"/>
      <point x="198" y="762" type="line"/>
      <point x="134" y="762" type="line"/>
      <point x="134" y="487" type="line"/>
      <point x="0" y="491" type="line"/>
      <point x="3" y="433" type="line"/>
      <point x="134" y="433" type="line"/>
      <point x="134" y="-126" type="line"/>
    </contour>
  </outline>
</glyph>
<glyph name="guilsinglright" format="1">
  <advance width="287"/>
  <unicode hex="203A"/>
  <outline>
    <contour>
      <point x="99" y="96" type="line"/>
      <point x="256" y="318" type="line"/>
      <point x="254" y="344" type="line"/>
      <point x="92" y="573" type="line"/>
      <point x="35" y="518" type="line"/>
      <point x="178" y="348" type="line"/>
      <point x="178" y="344" type="line"/>
      <point x="37" y="151" type="line"/>
    </contour>
  </outline>
</glyph>
<glyph name="commercialMinusSign" format="1">
  <advance width="309"/>
  <unicode hex="2052"/>
  <outline>
    <contour>
      <point x="76" y="-14" type="line"/>
      <point x="279" y="710" type="line"/>
      <point x="218" y="720" type="line"/>
      <point x="23" y="0" type="line"/>
    </contour>
    <contour>
      <point x="185" y="-1" type="line"/>
      <point x="284" y="-1" type="line"/>
      <point x="289" y="104" type="line"/>
      <point x="221" y="106" type="line"/>
      <point x="175" y="94" type="line"/>
      <point x="175" y="44" type="line"/>
    </contour>
    <contour>
      <point x="51" y="605" type="line"/>
      <point x="124" y="609" type="line"/>
      <point x="134" y="676" type="line"/>
      <point x="124" y="710" type="line"/>
      <point x="20" y="711" type="line"/>
      <point x="20" y="615" type="line"/>
    </contour>
  </outline>
</glyph>
<glyph name="foursuperior" format="1">
  <advance width="198"/>
  <unicode hex="2074"/>
  <outline>
    <contour>
      <point x="112" y="345" type="line"/>
      <point x="158" y="345" type="line"/>
      <point x="158" y="419" type="line"/>
      <point x="193" y="419" type="line"/>
      <point x="193" y="460" type="line"/>
      <point x="158" y="467" type="line"/>
      <point x="157" y="710" type="line"/>
      <point x="85" y="710" type="line"/>
      <point x="10" y="454" type="line"/>
      <point x="20" y="419" type="line"/>
      <point x="112" y="419" type="line"/>
    </contour>
    <contour>
      <point x="63" y="470" type="line"/>
      <point x="112" y="653" type="line"/>
      <point x="116" y="653" type="line"/>
      <point x="110" y="470" type="line"/>
    </contour>
  </outline>
</glyph>
<glyph name="peseta" format="1">
  <advance width="287"/>
  <unicode hex="20A7"/>
  <outline>
    <contour>
      <point x="28" y="0" type="line"/>
      <point x="97" y="0" type="line"/>
      <point x="105" y="306" type="line"/>
      <point x="215" y="317" type="line"/>
      <point x="250" y="379" type="line"/>
      <point x="241" y="659" type="line" smooth="yes"/>
      <point x="239" y="704"/>
      <point x="218" y="710"/>
      <point x="163" y="712" type="curve" smooth="yes"/>
      <point x="51" y="717" type="line"/>
    </contour>
    <contour>
      <point x="0" y="471" type="line"/>
      <point x="80" y="473" type="line"/>
      <point x="80" y="539" type="line"/>
      <point x="0" y="539" type="line"/>
    </contour>
    <contour>
      <point x="111" y="382" type="line"/>
      <point x="111" y="652" type="line"/>
      <point x="182" y="660" type="line"/>
      <point x="182" y="391" type="line" smooth="yes"/>
      <point x="182" y="387"/>
      <point x="180" y="385"/>
      <point x="176" y="385" type="curve"/>
    </contour>
    <contour>
      <point x="197" y="476" type="line"/>
      <point x="284" y="481" type="line"/>
      <point x="287" y="540" type="line"/>
      <point x="199" y="540" type="line"/>
    </contour>
  </outline>
</glyph>
<glyph name="rupeeIndian" format="1">
  <advance width="348"/>
  <unicode hex="20B9"/>
  <outline>
    <contour>
      <point x="231" y="0" type="line"/>
      <point x="310" y="0" type="line"/>
      <point x="109" y="350" type="line"/>
      <point x="216" y="370" type="line"/>
      <point x="251" y="517" type="line"/>
      <point x="322" y="518" type="line"/>
      <point x="325" y="575" type="line"/>
      <point x="251" y="570" type="line"/>
      <point x="231" y="652" type="line"/>
      <point x="238" y="661" type="line"/>
      <point x="327" y="665" type="line"/>
      <point x="327" y="710" type="line"/>
      <point x="40" y="710" type="line"/>
      <point x="40" y="650" type="line"/>
      <point x="174" y="657" type="line"/>
      <point x="178" y="567" type="line"/>
      <point x="41" y="560" type="line"/>
      <point x="43" y="508" type="line"/>
      <point x="179" y="516" type="line"/>
      <point x="178" y="449" type="line" smooth="yes"/>
      <point x="178" y="429"/>
      <point x="168" y="414"/>
      <point x="148" y="410" type="curve" smooth="yes"/>
      <point x="40" y="386" type="line"/>
      <point x="40" y="351" type="line"/>
    </contour>
  </outline>
</glyph>
<glyph name="ruble" format="1">
  <advance width="290"/>
  <unicode hex="20BD"/>
  <outline>
    <contour>
      <point x="44" y="0" type="line"/>
      <point x="121" y="0" type="line"/>
      <point x="116" y="150" type="line"/>
      <point x="207" y="154" type="line"/>
      <point x="206" y="203" type="line"/>
      <point x="114" y="203" type="line"/>
      <point x="111" y="306" type="line"/>
      <point x="155" y="306" type="line" smooth="yes"/>
      <point x="248" y="306"/>
      <point x="258" y="367"/>
      <point x="258" y="379" type="curve" smooth="yes"/>
      <point x="258" y="661" type="line" smooth="yes"/>
      <point x="258" y="688"/>
      <point x="219" y="710"/>
      <point x="168" y="710" type="curve" smooth="yes"/>
      <point x="44" y="710" type="line"/>
      <point x="44" y="202" type="line"/>
      <point x="0" y="202" type="line"/>
      <point x="0" y="144" type="line"/>
      <point x="44" y="146" type="line"/>
    </contour>
    <contour>
      <point x="128" y="365" type="line"/>
      <point x="121" y="365"/>
      <point x="116" y="370"/>
      <point x="116" y="373" type="curve" smooth="yes"/>
      <point x="116" y="658" type="line" smooth="yes"/>
      <point x="116" y="663"/>
      <point x="120" y="665"/>
      <point x="128" y="665" type="curve" smooth="yes"/>
      <point x="145" y="665" type="line" smooth="yes"/>
      <point x="176" y="665"/>
      <point x="186" y="648"/>
      <point x="187" y="633" type="curve"/>
      <point x="177" y="381" type="line"/>
      <point x="177" y="377"/>
      <point x="175" y="376"/>
      <point x="171" y="375" type="curve" smooth="yes"/>
    </contour>
  </outline>
</glyph>
<glyph name="downArrow" format="1">
  <advance width="486"/>
  <unicode hex="2193"/>
  <note>
    arrowdown
  </note>
  <outline>
    <contour>
      <point x="223" y="118" type="line"/>
      <point x="264" y="118" type="line"/>
      <point x="443" y="317" type="line"/>
      <point x="414" y="354" type="line"/>
      <point x="386" y="352" type="line"/>
      <point x="281" y="212" type="line"/>
      <point x="272" y="213" type="line"/>
      <point x="273" y="650" type="line"/>
      <point x="221" y="650" type="line"/>
      <point x="210" y="225" type="line"/>
      <point x="200" y="226" type="line"/>
      <point x="78" y="355" type="line"/>
      <point x="43" y="325" type="line"/>
    </contour>
  </outline>
</glyph>
<glyph name="upDownArrow" format="1">
  <advance width="497"/>
  <unicode hex="2195"/>
  <note>
    arrowupdn
  </note>
  <outline>
    <contour>
      <point x="228" y="88" type="line"/>
      <point x="269" y="88" type="line"/>
      <point x="448" y="287" type="line"/>
      <point x="419" y="324" type="line"/>
      <point x="391" y="322" type="line"/>
      <point x="285" y="183" type="line"/>
      <point x="279" y="184" type="line"/>
      <point x="278" y="581" type="line"/>
      <point x="285" y="580" type="line"/>
      <point x="419" y="451" type="line"/>
      <point x="454" y="481" type="line"/>
      <point x="269" y="690" type="line"/>
      <point x="228" y="682" type="line"/>
      <point x="49" y="491" type="line"/>
      <point x="91" y="438" type="line"/>
      <point x="214" y="594" type="line"/>
      <point x="225" y="592" type="line"/>
      <point x="214" y="197" type="line"/>
      <point x="78" y="327" type="line"/>
      <point x="43" y="297" type="line"/>
    </contour>
  </outline>
</glyph>
<glyph name="southEastArrow" format="1">
  <advance width="502"/>
  <unicode hex="2198"/>
  <note>
    uni2198
  </note>
  <outline>
    <contour>
      <point x="143" y="191" type="line"/>
      <point x="400" y="201" type="line"/>
      <point x="428" y="218" type="line"/>
      <point x="431" y="491" type="line"/>
      <point x="378" y="494" type="line"/>
      <point x="368" y="307" type="line"/>
      <point x="360" y="295" type="line"/>
      <point x="101" y="570" type="line"/>
      <point x="59" y="522" type="line"/>
      <point x="328" y="258" type="line"/>
      <point x="322" y="249" type="line"/>
      <point x="131" y="264" type="line"/>
    </contour>
  </outline>
</glyph>
<glyph name="southWestArrow" format="1">
  <advance width="501"/>
  <unicode hex="2199"/>
  <note>
    uni2199
  </note>
  <outline>
    <contour>
      <point x="373" y="205" type="line"/>
      <point x="381" y="260" type="line"/>
      <point x="366" y="275" type="line"/>
      <point x="185" y="272" type="line"/>
      <point x="442" y="526" type="line"/>
      <point x="405" y="562" type="line"/>
      <point x="149" y="321" type="line"/>
      <point x="143" y="326" type="line"/>
      <point x="120" y="511" type="line"/>
      <point x="71" y="511" type="line"/>
      <point x="81" y="248" type="line"/>
      <point x="112" y="217" type="line"/>
    </contour>
  </outline>
</glyph>
<glyph name="divisionslash" format="1">
  <advance width="395"/>
  <unicode hex="2215"/>
  <outline>
    <contour>
      <point x="39" y="-2" type="line"/>
      <point x="395" y="679" type="line"/>
      <point x="361" y="707" type="line"/>
      <point x="0" y="33" type="line"/>
    </contour>
  </outline>
</glyph>
<glyph name="bulletoperator" format="1">
  <advance width="277"/>
  <unicode hex="2219"/>
  <outline>
    <contour>
      <point x="63" y="262" type="line"/>
      <point x="188" y="262" type="line"/>
      <point x="227" y="297" type="line"/>
      <point x="227" y="432" type="line"/>
      <point x="157" y="440" type="line"/>
      <point x="56" y="432" type="line"/>
      <point x="50" y="377" type="line"/>
    </contour>
  </outline>
</glyph>
<glyph name="Black_Up_Pointing_Triangle" format="1">
  <advance width="683"/>
  <unicode hex="25B2"/>
  <note>
    triagup
  </note>
  <outline>
    <contour>
      <point x="636" y="103" type="line"/>
      <point x="653" y="131" type="line"/>
      <point x="385" y="591" type="line"/>
      <point x="339" y="615" type="line"/>
      <point x="30" y="144" type="line"/>
      <point x="45" y="117" type="line"/>
    </contour>
  </outline>
</glyph>
<glyph name="White_Circle" format="1">
  <advance width="700"/>
  <unicode hex="25CB"/>
  <note>
    circle
  </note>
  <outline>
    <contour>
      <point x="440" y="69" type="curve"/>
      <point x="583" y="187" type="line"/>
      <point x="632" y="270"/>
      <point x="627" y="399"/>
      <point x="612" y="458" type="curve" smooth="yes"/>
      <point x="587" y="557"/>
      <point x="400" y="650"/>
      <point x="285" y="641" type="curve"/>
      <point x="164" y="566"/>
      <point x="74" y="438"/>
      <point x="79" y="264" type="curve"/>
      <point x="107" y="133"/>
      <point x="267" y="30"/>
    </contour>
    <contour>
      <point x="408" y="121" type="line"/>
      <point x="288" y="97"/>
      <point x="172" y="161"/>
      <point x="137" y="253" type="curve"/>
      <point x="133" y="390"/>
      <point x="204" y="524"/>
      <point x="299" y="584" type="curve"/>
      <point x="389" y="591"/>
      <point x="520" y="515"/>
      <point x="556" y="443" type="curve" smooth="yes"/>
      <point x="579" y="397"/>
      <point x="569" y="264"/>
      <point x="531" y="199" type="curve"/>
    </contour>
  </outline>
</glyph>
<glyph name="Black_Circle" format="1">
  <advance width="700"/>
  <unicode hex="25CF"/>
  <note>
    uni25CF
  </note>
  <outline>
    <contour>
      <point x="440" y="69" type="curve"/>
      <point x="583" y="187" type="line"/>
      <point x="632" y="270"/>
      <point x="627" y="399"/>
      <point x="612" y="458" type="curve" smooth="yes"/>
      <point x="587" y="557"/>
      <point x="400" y="650"/>
      <point x="285" y="641" type="curve"/>
      <point x="164" y="566"/>
      <point x="74" y="426"/>
      <point x="79" y="252" type="curve"/>
      <point x="122" y="121"/>
      <point x="287" y="38"/>
    </contour>
  </outline>
</glyph>
<glyph name="Black_Left_Pointing_Index" format="1">
  <advance width="861"/>
  <unicode hex="261A"/>
  <note>
    uni261C
  </note>
  <outline>
    <contour>
      <point x="513" y="204" type="line"/>
      <point x="568" y="217"/>
      <point x="614" y="232"/>
      <point x="650" y="263" type="curve"/>
      <point x="677" y="307"/>
      <point x="703" y="370"/>
      <point x="725" y="442" type="curve"/>
      <point x="678" y="468"/>
      <point x="645" y="486"/>
      <point x="586" y="507" type="curve"/>
      <point x="531" y="514"/>
      <point x="465" y="546"/>
      <point x="451" y="597" type="curve"/>
      <point x="445" y="634" type="line"/>
      <point x="396" y="636" type="line"/>
      <point x="370" y="600" type="line"/>
      <point x="374" y="548"/>
      <point x="412" y="488"/>
      <point x="455" y="465" type="curve"/>
      <point x="475" y="405"/>
      <point x="501" y="375"/>
      <point x="575" y="341" type="curve"/>
      <point x="570" y="330" type="line"/>
      <point x="466" y="380" type="line"/>
      <point x="432" y="462" type="line"/>
      <point x="391" y="455"/>
      <point x="302" y="446"/>
      <point x="216" y="457" type="curve"/>
      <point x="42" y="448" type="line"/>
      <point x="36" y="405" type="line"/>
      <point x="83" y="371"/>
      <point x="194" y="388"/>
      <point x="235" y="380" type="curve"/>
      <point x="295" y="374"/>
      <point x="357" y="371"/>
      <point x="405" y="370" type="curve"/>
      <point x="426" y="316" type="line"/>
      <point x="448" y="317" type="line"/>
      <point x="476" y="254" type="line"/>
      <point x="494" y="257" type="line"/>
    </contour>
    <contour>
      <point x="375" y="171" type="line"/>
      <point x="496" y="200" type="line"/>
      <point x="484" y="236" type="line"/>
      <point x="356" y="229" type="line"/>
      <point x="355" y="242" type="line"/>
      <point x="450" y="251" type="line"/>
      <point x="435" y="298" type="line"/>
      <point x="341" y="299" type="line"/>
      <point x="341" y="313" type="line"/>
      <point x="409" y="316" type="line"/>
      <point x="392" y="355" type="line"/>
      <point x="271" y="357" type="line"/>
      <point x="285" y="303" type="line"/>
      <point x="305" y="293" type="line"/>
      <point x="324" y="224" type="line"/>
    </contour>
    <contour>
      <point x="783" y="173" type="line"/>
      <point x="818" y="201" type="line"/>
      <point x="831" y="417" type="line"/>
      <point x="798" y="451" type="line"/>
      <point x="735" y="442" type="line"/>
      <point x="704" y="300"/>
      <point x="689" y="246"/>
      <point x="633" y="221" type="curve"/>
    </contour>
  </outline>
</glyph>
<glyph name="D.alt" format="1">
  <advance width="315"/>
  <outline>
    <contour>
      <point x="48" y="0" type="line"/>
      <point x="216" y="0" type="line" smooth="yes"/>
      <point x="225" y="0"/>
      <point x="275" y="4"/>
      <point x="275" y="56" type="curve" smooth="yes"/>
      <point x="275" y="678" type="line"/>
      <point x="198" y="710" type="line"/>
      <point x="33" y="710" type="line"/>
      <point x="54" y="84" type="line"/>
      <point x="48" y="56" type="line"/>
    </contour>
    <contour>
      <point x="128" y="69" type="line" smooth="yes"/>
      <point x="122" y="69"/>
      <point x="119" y="72"/>
      <point x="119" y="78" type="curve" smooth="yes"/>
      <point x="119" y="638" type="line" smooth="yes"/>
      <point x="119" y="644"/>
      <point x="122" y="647"/>
      <point x="128" y="647" type="curve" smooth="yes"/>
      <point x="204" y="647" type="line" smooth="yes"/>
      <point x="211" y="647"/>
      <point x="213" y="646"/>
      <point x="213" y="638" type="curve" smooth="yes"/>
      <point x="193" y="131" type="line"/>
      <point x="190" y="76"/>
      <point x="177" y="69"/>
      <point x="160" y="69" type="curve"/>
    </contour>
    <contour>
      <point x="155" y="0" type="move" name="bottom"/>
    </contour>
    <contour>
      <point x="151" y="710" type="move" name="top"/>
    </contour>
  </outline>
</glyph>
<glyph name="E.alt" format="1">
  <advance width="296"/>
  <outline>
    <contour>
      <point x="44" y="0" type="line"/>
      <point x="258" y="0" type="line"/>
      <point x="258" y="83" type="line"/>
      <point x="116" y="75" type="line"/>
      <point x="116" y="362" type="line"/>
      <point x="258" y="356" type="line"/>
      <point x="258" y="404" type="line"/>
      <point x="133" y="427" type="line"/>
      <point x="133" y="654" type="line"/>
      <point x="258" y="648" type="line"/>
      <point x="258" y="710" type="line"/>
      <point x="44" y="710" type="line"/>
    </contour>
    <contour>
      <point x="150" y="0" type="move" name="bottom"/>
    </contour>
    <contour>
      <point x="258" y="0" type="move" name="ogonek"/>
    </contour>
    <contour>
      <point x="153" y="710" type="move" name="top"/>
    </contour>
    <contour>
      <point x="20" y="710" type="move" name="topleft"/>
    </contour>
  </outline>
</glyph>
<glyph name="E_L" format="1">
  <advance width="416"/>
  <outline>
    <contour>
      <point x="46" y="160" type="line"/>
      <point x="201" y="160" type="line"/>
      <point x="194" y="251" type="line"/>
      <point x="125" y="243" type="line"/>
      <point x="125" y="428" type="line"/>
      <point x="188" y="438" type="line"/>
      <point x="188" y="496" type="line"/>
      <point x="120" y="496" type="line"/>
      <point x="120" y="632" type="line"/>
      <point x="192" y="632" type="line"/>
      <point x="192" y="710" type="line"/>
      <point x="69" y="710" type="line"/>
    </contour>
    <contour>
      <point x="56" y="0" type="line"/>
      <point x="391" y="0" type="line"/>
      <point x="391" y="89" type="line"/>
      <point x="48" y="76" type="line"/>
    </contour>
    <contour>
      <point x="262" y="140" type="line"/>
      <point x="391" y="140" type="line"/>
      <point x="391" y="209" type="line"/>
      <point x="328" y="222" type="line"/>
      <point x="349" y="710" type="line"/>
      <point x="262" y="710" type="line"/>
    </contour>
  </outline>
</glyph>
<glyph name="G.alt" format="1">
  <advance width="333"/>
  <outline>
    <contour>
      <point x="54" y="0" type="line"/>
      <point x="204" y="0" type="line" smooth="yes"/>
      <point x="239" y="0"/>
      <point x="274" y="22"/>
      <point x="274" y="58" type="curve" smooth="yes"/>
      <point x="274" y="277" type="line"/>
      <point x="313" y="294" type="line"/>
      <point x="313" y="333" type="line"/>
      <point x="211" y="343" type="line"/>
      <point x="211" y="106" type="line" smooth="yes"/>
      <point x="211" y="98"/>
      <point x="199" y="94"/>
      <point x="191" y="94" type="curve" smooth="yes"/>
      <point x="145" y="94" type="line" smooth="yes"/>
      <point x="136" y="94"/>
      <point x="124" y="103"/>
      <point x="124" y="112" type="curve" smooth="yes"/>
      <point x="107" y="630" type="line"/>
      <point x="219" y="655" type="line"/>
      <point x="219" y="559" type="line"/>
      <point x="263" y="559" type="line"/>
      <point x="281" y="668" type="line"/>
      <point x="281" y="710" type="line"/>
      <point x="81" y="710" type="line" smooth="yes"/>
      <point x="52" y="710"/>
      <point x="33" y="687"/>
      <point x="32" y="656" type="curve"/>
    </contour>
    <contour>
      <point x="170" y="0" type="move" name="bottom"/>
    </contour>
    <contour>
      <point x="165" y="710" type="move" name="top"/>
    </contour>
  </outline>
</glyph>
<glyph name="J.alt" format="1">
  <advance width="264"/>
  <outline>
    <contour>
      <point x="73" y="0" type="curve"/>
      <point x="209" y="0" type="line"/>
      <point x="228" y="710" type="line"/>
      <point x="191" y="710" type="line"/>
      <point x="151" y="696" type="line"/>
      <point x="151" y="89" type="line"/>
      <point x="76" y="94" type="line"/>
      <point x="71" y="172" type="line"/>
      <point x="22" y="172" type="line"/>
      <point x="30" y="38" type="line" smooth="yes"/>
      <point x="31" y="19"/>
      <point x="54" y="0"/>
    </contour>
    <contour>
      <point x="132" y="0" type="move" name="bottom"/>
    </contour>
    <contour>
      <point x="188" y="710" type="move" name="top"/>
    </contour>
  </outline>
</glyph>
<glyph name="L.alt" format="1">
  <advance width="264"/>
  <outline>
    <contour>
      <point x="40" y="0" type="line"/>
      <point x="242" y="0" type="line"/>
      <point x="242" y="69" type="line"/>
      <point x="129" y="82" type="line"/>
      <point x="114" y="105" type="line"/>
      <point x="114" y="710" type="line"/>
      <point x="40" y="710" type="line"/>
    </contour>
    <contour>
      <point x="139" y="0" type="move" name="bottom"/>
    </contour>
    <contour>
      <point x="211" y="385" type="move" name="center"/>
    </contour>
    <contour>
      <point x="78" y="710" type="move" name="top"/>
    </contour>
    <contour>
      <point x="162" y="540" type="move" name="topright"/>
    </contour>
  </outline>
</glyph>
<glyph name="L_A" format="1">
  <advance width="441"/>
  <outline>
    <contour>
      <point x="338" y="140" type="line"/>
      <point x="386" y="140" type="line"/>
      <point x="386" y="710" type="line"/>
      <point x="223" y="710" type="line"/>
      <point x="191" y="255" type="line"/>
      <point x="233" y="250" type="line"/>
      <point x="266" y="423" type="line"/>
      <point x="312" y="423" type="line"/>
    </contour>
    <contour>
      <point x="48" y="0" type="line"/>
      <point x="391" y="13" type="line"/>
      <point x="383" y="84" type="line"/>
      <point x="48" y="84" type="line"/>
    </contour>
    <contour>
      <point x="49" y="140" type="line"/>
      <point x="241" y="140" type="line"/>
      <point x="241" y="204" type="line"/>
      <point x="110" y="217" type="line"/>
      <point x="131" y="710" type="line"/>
      <point x="49" y="710" type="line"/>
    </contour>
    <contour>
      <point x="282" y="460" type="line"/>
      <point x="278" y="460"/>
      <point x="276" y="462"/>
      <point x="276" y="465" type="curve"/>
      <point x="276" y="677" type="line"/>
      <point x="276" y="681"/>
      <point x="278" y="683"/>
      <point x="282" y="683" type="curve"/>
      <point x="322" y="683" type="line"/>
      <point x="326" y="683"/>
      <point x="328" y="681"/>
      <point x="328" y="677" type="curve"/>
      <point x="328" y="466" type="line"/>
      <point x="328" y="462"/>
      <point x="326" y="460"/>
      <point x="322" y="460" type="curve"/>
    </contour>
  </outline>
</glyph>
<glyph name="L_L" format="1">
  <advance width="365"/>
  <outline>
    <contour>
      <point x="40" y="0" type="line"/>
      <point x="349" y="0" type="line"/>
      <point x="349" y="64" type="line"/>
      <point x="116" y="82" type="line"/>
      <point x="137" y="710" type="line"/>
      <point x="40" y="710" type="line"/>
    </contour>
    <contour>
      <point x="192" y="130" type="line"/>
      <point x="344" y="130" type="line"/>
      <point x="347" y="190" type="line"/>
      <point x="265" y="188" type="line"/>
      <point x="261" y="706" type="line"/>
      <point x="195" y="705" type="line"/>
    </contour>
  </outline>
</glyph>
<glyph name="Nhookleft.alt" format="1">
  <advance width="320"/>
  <outline>
    <contour>
      <point x="-35" y="-119" type="line"/>
      <point x="45" y="-119" type="line"/>
      <point x="88" y="-70" type="line"/>
      <point x="98" y="554" type="line"/>
      <point x="102" y="554" type="line"/>
      <point x="200" y="-20" type="line"/>
      <point x="268" y="-20" type="line"/>
      <point x="288" y="710" type="line"/>
      <point x="229" y="710" type="line"/>
      <point x="229" y="131" type="line"/>
      <point x="222" y="131" type="line"/>
      <point x="121" y="710" type="line"/>
      <point x="60" y="710" type="line"/>
      <point x="37" y="-46" type="line"/>
      <point x="37" y="-51"/>
      <point x="35" y="-54"/>
      <point x="31" y="-55" type="curve"/>
      <point x="-35" y="-64" type="line"/>
    </contour>
  </outline>
</glyph>
<glyph name="OE.alt" format="1">
  <advance width="458"/>
  <outline>
    <contour>
      <point x="112" y="0" type="curve"/>
      <point x="409" y="0" type="line"/>
      <point x="409" y="83" type="line"/>
      <point x="267" y="75" type="line"/>
      <point x="267" y="362" type="line"/>
      <point x="409" y="356" type="line"/>
      <point x="409" y="404" type="line"/>
      <point x="284" y="427" type="line"/>
      <point x="284" y="654" type="line"/>
      <point x="409" y="648" type="line"/>
      <point x="409" y="710" type="line"/>
      <point x="225" y="703" type="line"/>
      <point x="215" y="707"/>
      <point x="204" y="710"/>
      <point x="191" y="710" type="curve" smooth="yes"/>
      <point x="110" y="710"/>
      <point x="68" y="702"/>
      <point x="39" y="686" type="curve"/>
      <point x="39" y="56" type="line" smooth="yes"/>
      <point x="39" y="17"/>
      <point x="56" y="0"/>
    </contour>
    <contour>
      <point x="174" y="57" type="line"/>
      <point x="103" y="63" type="line"/>
      <point x="109" y="640" type="line"/>
      <point x="118" y="646" type="line"/>
      <point x="180" y="643" type="line"/>
      <point x="186" y="642"/>
      <point x="189" y="640"/>
      <point x="189" y="637" type="curve" smooth="yes"/>
      <point x="183" y="66" type="line"/>
    </contour>
  </outline>
</glyph>
<glyph name="Thorn.alt" format="1">
  <advance width="288"/>
  <outline>
    <contour>
      <point x="28" y="0" type="line"/>
      <point x="74" y="0" type="line"/>
      <point x="95" y="156" type="line"/>
      <point x="225" y="167" type="line"/>
      <point x="260" y="229" type="line"/>
      <point x="249" y="578" type="line" smooth="yes"/>
      <point x="249" y="593"/>
      <point x="228" y="599"/>
      <point x="213" y="599" type="curve" smooth="yes"/>
      <point x="170" y="599" type="line" smooth="yes"/>
      <point x="157" y="599"/>
      <point x="123" y="596"/>
      <point x="108" y="593" type="curve"/>
      <point x="108" y="710" type="line"/>
      <point x="58" y="710" type="line"/>
    </contour>
    <contour>
      <point x="111" y="222" type="line"/>
      <point x="111" y="547" type="line"/>
      <point x="177" y="554" type="line"/>
      <point x="192" y="539" type="line"/>
      <point x="192" y="231" type="line" smooth="yes"/>
      <point x="192" y="227"/>
      <point x="190" y="225"/>
      <point x="186" y="225" type="curve"/>
    </contour>
  </outline>
</glyph>
<glyph name="W.alt" format="1">
  <advance width="415"/>
  <outline>
    <contour>
      <point x="73" y="0" type="line"/>
      <point x="178" y="0" type="line"/>
      <point x="201" y="500" type="line"/>
      <point x="205" y="500" type="line"/>
      <point x="281" y="10" type="line"/>
      <point x="377" y="10" type="line"/>
      <point x="410" y="700" type="line"/>
      <point x="349" y="700" type="line"/>
      <point x="327" y="33" type="line"/>
      <point x="322" y="33" type="line"/>
      <point x="239" y="539" type="line"/>
      <point x="245" y="690" type="line"/>
      <point x="173" y="690" type="line"/>
      <point x="124" y="37" type="line"/>
      <point x="120" y="37" type="line"/>
      <point x="69" y="710" type="line"/>
      <point x="4" y="710" type="line"/>
    </contour>
    <contour>
      <point x="194" y="0" type="move" name="bottom"/>
    </contour>
    <contour>
      <point x="208" y="710" type="move" name="top"/>
    </contour>
  </outline>
</glyph>
<glyph name="acutecomb.case" format="1">
  <advance width="150"/>
  <outline>
    <contour>
      <point x="22" y="632" type="line"/>
      <point x="150" y="692" type="line"/>
      <point x="115" y="749" type="line"/>
      <point x="0" y="667" type="line"/>
    </contour>
    <contour>
      <point x="68" y="582" type="move" name="_top"/>
    </contour>
    <contour>
      <point x="68" y="730" type="move" name="top"/>
    </contour>
  </outline>
</glyph>
<glyph name="breveinvertedcomb.case" format="1">
  <advance width="183"/>
  <outline>
    <contour>
      <point x="183" y="621" type="line"/>
      <point x="183" y="697" type="line"/>
      <point x="144" y="736" type="line"/>
      <point x="49" y="736" type="line"/>
      <point x="4" y="708" type="line"/>
      <point x="0" y="627" type="line"/>
      <point x="58" y="627" type="line"/>
      <point x="53" y="681" type="line"/>
      <point x="65" y="692" type="line"/>
      <point x="135" y="685" type="line"/>
      <point x="132" y="625" type="line"/>
    </contour>
    <contour>
      <point x="91" y="582" type="move" name="_top"/>
    </contour>
    <contour>
      <point x="91" y="756" type="move" name="top"/>
    </contour>
  </outline>
</glyph>
<glyph name="caron.alt" format="1">
  <advance width="171"/>
  <outline>
    <contour>
      <point x="73" y="585" type="line"/>
      <point x="141" y="675" type="line"/>
      <point x="135" y="771" type="line"/>
      <point x="49" y="767" type="line"/>
      <point x="81" y="675" type="line"/>
      <point x="30" y="600" type="line"/>
    </contour>
    <contour>
      <point x="85" y="582" type="move" name="_top"/>
    </contour>
    <contour>
      <point x="85" y="762" type="move" name="top"/>
    </contour>
  </outline>
</glyph>
<glyph name="caroncomb.alt" format="1">
  <advance width="100"/>
  <outline>
    <contour>
      <point x="41" y="575" type="line"/>
      <point x="100" y="710" type="line"/>
      <point x="99" y="792" type="line"/>
      <point x="30" y="794" type="line"/>
      <point x="0" y="582" type="line"/>
    </contour>
    <contour>
      <point x="0" y="582" type="move" name="_topright"/>
    </contour>
  </outline>
</glyph>
<glyph name="commaaccentcomb.case" format="1">
  <advance width="80"/>
  <outline>
    <contour>
      <point x="47" y="-225" type="line"/>
      <point x="80" y="-140" type="line"/>
      <point x="80" y="-58" type="line"/>
      <point x="0" y="-59" type="line"/>
      <point x="5" y="-135" type="line"/>
      <point x="24" y="-151" type="line"/>
      <point x="7" y="-215" type="line"/>
    </contour>
    <contour>
      <point x="42" y="0" type="move" name="_bottom"/>
    </contour>
    <contour>
      <point x="42" y="-220" type="move" name="bottom"/>
    </contour>
  </outline>
</glyph>
<glyph name="commaturnedabovecomb.case" format="1">
  <advance width="88"/>
  <outline>
    <contour>
      <point x="0" y="659" type="line"/>
      <point x="85" y="660" type="line"/>
      <point x="88" y="729" type="line"/>
      <point x="61" y="750" type="line"/>
      <point x="75" y="806" type="line"/>
      <point x="30" y="816" type="line"/>
      <point x="0" y="741" type="line"/>
    </contour>
    <contour>
      <point x="45" y="582" type="move" name="_top"/>
    </contour>
    <contour>
      <point x="45" y="762" type="move" name="top"/>
    </contour>
  </outline>
</glyph>
<glyph name="f_l.alt" format="1">
  <advance width="345"/>
  <outline>
    <contour>
      <point x="-57" y="-129" type="line"/>
      <point x="81" y="-129" type="line"/>
      <point x="124" y="-80" type="line"/>
      <point x="109" y="522" type="line"/>
      <point x="189" y="522" type="line"/>
      <point x="189" y="583" type="line"/>
      <point x="108" y="583" type="line"/>
      <point x="108" y="637" type="line" smooth="yes"/>
      <point x="108" y="642"/>
      <point x="110" y="646"/>
      <point x="114" y="646" type="curve" smooth="yes"/>
      <point x="228" y="652" type="line"/>
      <point x="232" y="-25" type="line"/>
      <point x="326" y="-25" type="line"/>
      <point x="327" y="20" type="line"/>
      <point x="294" y="33" type="line"/>
      <point x="302" y="710" type="line"/>
      <point x="85" y="710" type="line"/>
      <point x="42" y="661" type="line"/>
      <point x="43" y="583" type="line"/>
      <point x="3" y="565" type="line"/>
      <point x="3" y="522" type="line"/>
      <point x="44" y="522" type="line"/>
      <point x="52" y="-56" type="line" smooth="yes"/>
      <point x="52" y="-61"/>
      <point x="50" y="-65"/>
      <point x="46" y="-65" type="curve" smooth="yes"/>
      <point x="-57" y="-74" type="line"/>
    </contour>
  </outline>
</glyph>
<glyph name="gravecomb.case" format="1">
  <advance width="150"/>
  <outline>
    <contour>
      <point x="128" y="632" type="line"/>
      <point x="150" y="667" type="line"/>
      <point x="35" y="749" type="line"/>
      <point x="0" y="692" type="line"/>
    </contour>
    <contour>
      <point x="83" y="582" type="move" name="_top"/>
    </contour>
    <contour>
      <point x="83" y="730" type="move" name="top"/>
    </contour>
  </outline>
</glyph>
<glyph name="hookabovecomb.case" format="1">
  <advance width="129"/>
  <outline>
    <contour>
      <point x="41" y="627" type="line"/>
      <point x="77" y="627" type="line"/>
      <point x="80" y="644" type="line"/>
      <point x="129" y="664" type="line"/>
      <point x="129" y="712" type="line" smooth="yes"/>
      <point x="129" y="734"/>
      <point x="116" y="748"/>
      <point x="94" y="747" type="curve" smooth="yes"/>
      <point x="10" y="742" type="line"/>
      <point x="11" y="709" type="line"/>
      <point x="75" y="702" type="line"/>
      <point x="77" y="689" type="line"/>
      <point x="37" y="659" type="line"/>
    </contour>
    <contour>
      <point x="63" y="582" type="move" name="_top"/>
    </contour>
    <contour>
      <point x="63" y="747" type="move" name="top"/>
    </contour>
  </outline>
</glyph>
<glyph name="hungarumlautcomb.case" format="1">
  <advance width="260"/>
  <outline>
    <contour>
      <point x="152" y="632" type="line"/>
      <point x="260" y="686" type="line"/>
      <point x="225" y="741" type="line"/>
      <point x="130" y="662" type="line"/>
    </contour>
    <contour>
      <point x="22" y="632" type="line"/>
      <point x="130" y="686" type="line"/>
      <point x="95" y="741" type="line"/>
      <point x="0" y="662" type="line"/>
    </contour>
    <contour>
      <point x="114" y="582" type="move" name="_top"/>
    </contour>
    <contour>
      <point x="114" y="730" type="move" name="top"/>
    </contour>
  </outline>
</glyph>
<glyph name="jdotless.alt" format="1">
  <advance width="167"/>
  <outline>
    <contour>
      <point x="-57" y="-129" type="line"/>
      <point x="81" y="-129" type="line"/>
      <point x="124" y="-80" type="line"/>
      <point x="113" y="582" type="line"/>
      <point x="39" y="582" type="line"/>
      <point x="39" y="541" type="line"/>
      <point x="52" y="516" type="line"/>
      <point x="52" y="-56" type="line" smooth="yes"/>
      <point x="52" y="-61"/>
      <point x="50" y="-65"/>
      <point x="46" y="-65" type="curve" smooth="yes"/>
      <point x="-57" y="-74" type="line"/>
    </contour>
    <contour>
      <point x="84" y="0" type="move" name="bottom"/>
    </contour>
    <contour>
      <point x="78" y="582" type="move" name="top"/>
    </contour>
  </outline>
</glyph>
<glyph name="macronbelowcomb.case" format="1">
  <advance width="268"/>
  <outline>
    <contour>
      <point x="3" y="-134" type="line"/>
      <point x="268" y="-125" type="line"/>
      <point x="268" y="-70" type="line"/>
      <point x="0" y="-70" type="line"/>
    </contour>
    <contour>
      <point x="134" y="0" type="move" name="_bottom"/>
    </contour>
    <contour>
      <point x="134" y="-150" type="move" name="bottom"/>
    </contour>
  </outline>
</glyph>
<glyph name="oe.alt" format="1">
  <advance width="418"/>
  <outline>
    <contour>
      <point x="121" y="0" type="curve" smooth="yes"/>
      <point x="366" y="0" type="line"/>
      <point x="366" y="57" type="line"/>
      <point x="269" y="57" type="line"/>
      <point x="257" y="63" type="line"/>
      <point x="251" y="259" type="line"/>
      <point x="340" y="256" type="line" smooth="yes"/>
      <point x="372" y="255"/>
      <point x="377" y="279"/>
      <point x="377" y="299" type="curve" smooth="yes"/>
      <point x="378" y="540" type="line"/>
      <point x="339" y="582" type="line"/>
      <point x="180" y="582" type="line" smooth="yes"/>
      <point x="109" y="582"/>
      <point x="70" y="577"/>
      <point x="45" y="561" type="curve"/>
      <point x="45" y="56" type="line" smooth="yes"/>
      <point x="45" y="17"/>
      <point x="65" y="0"/>
    </contour>
    <contour>
      <point x="169" y="51" type="line"/>
      <point x="106" y="57" type="line"/>
      <point x="112" y="521" type="line"/>
      <point x="121" y="527" type="line"/>
      <point x="175" y="524" type="line"/>
      <point x="184" y="523"/>
      <point x="184" y="521"/>
      <point x="184" y="518" type="curve" smooth="yes"/>
      <point x="178" y="60" type="line"/>
    </contour>
    <contour>
      <point x="253" y="308" type="line"/>
      <point x="245" y="471" type="line"/>
      <point x="246" y="520" type="line"/>
      <point x="248" y="524" type="line"/>
      <point x="307" y="522" type="line"/>
      <point x="316" y="521"/>
      <point x="316" y="519"/>
      <point x="316" y="516" type="curve" smooth="yes"/>
      <point x="312" y="320" type="line"/>
      <point x="307" y="314" type="line"/>
    </contour>
  </outline>
</glyph>
<glyph name="ogonekcomb.case" format="1">
  <advance width="174"/>
  <outline>
    <contour>
      <point x="74" y="-180" type="line"/>
      <point x="132" y="-148" type="line"/>
      <point x="132" y="-122" type="line"/>
      <point x="74" y="-122" type="line"/>
      <point x="56" y="-85" type="line"/>
      <point x="128" y="0" type="line"/>
      <point x="128" y="20" type="line"/>
      <point x="105" y="26" type="line"/>
      <point x="0" y="-67" type="line"/>
      <point x="0" y="-136" type="line"/>
    </contour>
    <contour>
      <point x="128" y="0" type="move" name="_ogonek"/>
    </contour>
  </outline>
</glyph>
<glyph name="oogonek.alt" format="1">
  <advance width="289"/>
  <outline>
    <component base="o.alt"/>
    <component base="ogonekcomb" xOffset="24"/>
    <contour>
      <point x="143" y="-226" type="move" name="bottom"/>
    </contour>
  </outline>
</glyph>
<glyph name="t.alt" format="1">
  <advance width="238"/>
  <outline>
    <contour>
      <point x="99" y="0" type="curve" smooth="yes"/>
      <point x="221" y="0" type="line"/>
      <point x="221" y="51" type="line"/>
      <point x="133" y="61" type="line"/>
      <point x="122" y="506" type="line" smooth="yes"/>
      <point x="122" y="517"/>
      <point x="127" y="522"/>
      <point x="135" y="522" type="curve" smooth="yes"/>
      <point x="226" y="522" type="line"/>
      <point x="226" y="582" type="line"/>
      <point x="128" y="582" type="line"/>
      <point x="134" y="710" type="line"/>
      <point x="91" y="710" type="line"/>
      <point x="65" y="690" type="line"/>
      <point x="64" y="582" type="line"/>
      <point x="20" y="582" type="line"/>
      <point x="20" y="528" type="line"/>
      <point x="63" y="528" type="line"/>
      <point x="56" y="49" type="line" smooth="yes"/>
      <point x="55" y="21"/>
      <point x="76" y="0"/>
    </contour>
    <contour>
      <point x="140" y="0" type="move" name="bottom"/>
    </contour>
    <contour>
      <point x="134" y="582" type="move" name="top"/>
    </contour>
  </outline>
</glyph>
<glyph name="tcaron.alt" format="1">
  <advance width="257"/>
  <outline>
    <contour>
      <point x="160" y="612" type="line"/>
      <point x="213" y="612" type="line"/>
      <point x="271" y="687" type="line"/>
      <point x="265" y="783" type="line"/>
      <point x="179" y="779" type="line"/>
      <point x="211" y="687" type="line"/>
    </contour>
    <component base="t.alt"/>
  </outline>
</glyph>
<glyph name="tildecomb.case" format="1">
  <advance width="228"/>
  <outline>
    <contour>
      <point x="3" y="627" type="line"/>
      <point x="71" y="680" type="line"/>
      <point x="115" y="649" type="line" smooth="yes"/>
      <point x="132" y="637"/>
      <point x="145" y="630"/>
      <point x="160" y="630" type="curve" smooth="yes"/>
      <point x="172" y="630"/>
      <point x="191" y="641"/>
      <point x="204" y="653" type="curve" smooth="yes"/>
      <point x="228" y="676" type="line"/>
      <point x="228" y="731" type="line"/>
      <point x="156" y="683" type="line"/>
      <point x="118" y="708" type="line" smooth="yes"/>
      <point x="102" y="719"/>
      <point x="83" y="728"/>
      <point x="64" y="728" type="curve" smooth="yes"/>
      <point x="49" y="728"/>
      <point x="37" y="723"/>
      <point x="26" y="714" type="curve"/>
      <point x="0" y="691" type="line"/>
    </contour>
    <contour>
      <point x="115" y="582" type="move" name="_top"/>
    </contour>
    <contour>
      <point x="115" y="692" type="move" name="top"/>
    </contour>
  </outline>
</glyph>
<glyph name="y.alt" format="1">
  <advance width="246"/>
  <outline>
    <contour>
      <point x="18" y="-129" type="line"/>
      <point x="118" y="-129" type="line" smooth="yes"/>
      <point x="146" y="-129"/>
      <point x="158" y="-114"/>
      <point x="161" y="-90" type="curve" smooth="yes"/>
      <point x="168" y="32" type="line"/>
      <point x="234" y="582" type="line"/>
      <point x="167" y="582" type="line"/>
      <point x="126" y="79" type="line"/>
      <point x="122" y="79" type="line"/>
      <point x="81" y="582" type="line"/>
      <point x="12" y="582" type="line"/>
      <point x="74" y="0" type="line"/>
      <point x="110" y="0" type="line"/>
      <point x="106" y="-67" type="line"/>
      <point x="18" y="-77" type="line"/>
    </contour>
    <contour>
      <point x="221" y="0" type="move" name="bottom"/>
    </contour>
    <contour>
      <point x="123" y="582" type="move" name="top"/>
    </contour>
  </outline>
</glyph>
